<svg width="13" height="12" viewBox="0 0 13 12" fill="none" xmlns="http://www.w3.org/2000/svg">
<path d="M0.517578 12V11.8174C0.517578 11.7652 0.530615 11.7 0.543659 11.6478L4.63931 0.326087C4.70453 0.130435 4.88714 0 5.09584 0H7.37844C7.58714 0 7.75671 0.130434 7.83497 0.313043L12.0871 11.6348C12.1132 11.687 12.1132 11.7522 12.1132 11.8043V11.987H9.89584C9.68715 11.987 9.50454 11.8565 9.43932 11.6609L8.77411 9.74348C8.70889 9.54783 8.52628 9.41739 8.31758 9.41739H4.33932C4.13063 9.41739 3.94802 9.54783 3.8828 9.74348L3.23063 11.6478C3.16541 11.8435 2.9828 11.9739 2.77411 11.9739H0.517578V12ZM5.23931 7.4087H7.32627C7.6654 7.4087 7.90018 7.08261 7.78279 6.75652L6.71323 3.73044C6.55671 3.3 5.94367 3.3 5.78715 3.74348L4.78279 6.76956C4.67844 7.08261 4.91322 7.4087 5.23931 7.4087Z" fill="#B9FFDD"/>
</svg>
